<svg baseProfile="tiny" xmlns="http://www.w3.org/2000/svg" width="200" height="200"><path shape-rendering="optimizeSpeed" fill="#fff" d="M0 0h200v200H0z"/><path shape-rendering="optimizeSpeed" d="M17 17h5v5h-5zm5 0h5v5h-5zm5 0h5v5h-5zm5 0h5v5h-5zm5 0h5v5h-5zm5 0h5v5h-5zm5 0h5v5h-5zm15 0h5v5h-5zm25 0h5v5h-5zm10 0h5v5h-5zm5 0h5v5h-5zm5 0h5v5h-5zm5 0h5v5h-5zm5 0h5v5h-5zm5 0h5v5h-5zm10 0h5v5h-5zm15 0h5v5h-5zm5 0h5v5h-5zm5 0h5v5h-5zm5 0h5v5h-5zm5 0h5v5h-5zm5 0h5v5h-5zm5 0h5v5h-5zM17 22h5v5h-5zm30 0h5v5h-5zm10 0h5v5h-5zm5 0h5v5h-5zm10 0h5v5h-5zm5 0h5v5h-5zm5 0h5v5h-5zm5 0h5v5h-5zm5 0h5v5h-5zm5 0h5v5h-5zm10 0h5v5h-5zm20 0h5v5h-5zm10 0h5v5h-5zm10 0h5v5h-5zm30 0h5v5h-5zM17 27h5v5h-5zm10 0h5v5h-5zm5 0h5v5h-5zm5 0h5v5h-5zm10 0h5v5h-5zm15 0h5v5h-5zm5 0h5v5h-5zm5 0h5v5h-5zm25 0h5v5h-5zm15 0h5v5h-5zm10 0h5v5h-5zm5 0h5v5h-5zm5 0h5v5h-5zm15 0h5v5h-5zm10 0h5v5h-5zm5 0h5v5h-5zm5 0h5v5h-5zm10 0h5v5h-5zM17 32h5v5h-5zm10 0h5v5h-5zm5 0h5v5h-5zm5 0h5v5h-5zm10 0h5v5h-5zm10 0h5v5h-5zm5 0h5v5h-5zm10 0h5v5h-5zm10 0h5v5h-5zm5 0h5v5h-5zm15 0h5v5h-5zm15 0h5v5h-5zm10 0h5v5h-5zm5 0h5v5h-5zm5 0h5v5h-5zm10 0h5v5h-5zm10 0h5v5h-5zm5 0h5v5h-5zm5 0h5v5h-5zm10 0h5v5h-5zM17 37h5v5h-5zm10 0h5v5h-5zm5 0h5v5h-5zm5 0h5v5h-5zm10 0h5v5h-5zm20 0h5v5h-5zm10 0h5v5h-5zm20 0h5v5h-5zm5 0h5v5h-5zm5 0h5v5h-5zm5 0h5v5h-5zm5 0h5v5h-5zm15 0h5v5h-5zm5 0h5v5h-5zm10 0h5v5h-5zm10 0h5v5h-5zm5 0h5v5h-5zm5 0h5v5h-5zm10 0h5v5h-5zM17 42h5v5h-5zm30 0h5v5h-5zm10 0h5v5h-5zm10 0h5v5h-5zm20 0h5v5h-5zm5 0h5v5h-5zm10 0h5v5h-5zm5 0h5v5h-5zm15 0h5v5h-5zm15 0h5v5h-5zm10 0h5v5h-5zm30 0h5v5h-5zM17 47h5v5h-5zm5 0h5v5h-5zm5 0h5v5h-5zm5 0h5v5h-5zm5 0h5v5h-5zm5 0h5v5h-5zm5 0h5v5h-5zm10 0h5v5h-5zm10 0h5v5h-5zm10 0h5v5h-5zm10 0h5v5h-5zm10 0h5v5h-5zm10 0h5v5h-5zm10 0h5v5h-5zm10 0h5v5h-5zm10 0h5v5h-5zm10 0h5v5h-5zm5 0h5v5h-5zm5 0h5v5h-5zm5 0h5v5h-5zm5 0h5v5h-5zm5 0h5v5h-5zm5 0h5v5h-5zM77 52h5v5h-5zm10 0h5v5h-5zm5 0h5v5h-5zm5 0h5v5h-5zm20 0h5v5h-5zm5 0h5v5h-5zm5 0h5v5h-5zm10 0h5v5h-5zM17 57h5v5h-5zm5 0h5v5h-5zm5 0h5v5h-5zm5 0h5v5h-5zm5 0h5v5h-5zm10 0h5v5h-5zm5 0h5v5h-5zm5 0h5v5h-5zm5 0h5v5h-5zm5 0h5v5h-5zm10 0h5v5h-5zm5 0h5v5h-5zm20 0h5v5h-5zm15 0h5v5h-5zm10 0h5v5h-5zm5 0h5v5h-5zm5 0h5v5h-5zm5 0h5v5h-5zm10 0h5v5h-5zm10 0h5v5h-5zm10 0h5v5h-5zM22 62h5v5h-5zm10 0h5v5h-5zm5 0h5v5h-5zm25 0h5v5h-5zm20 0h5v5h-5zm15 0h5v5h-5zm15 0h5v5h-5zm5 0h5v5h-5zm5 0h5v5h-5zm5 0h5v5h-5zm5 0h5v5h-5zm15 0h5v5h-5zm20 0h5v5h-5zm5 0h5v5h-5zm5 0h5v5h-5zM32 67h5v5h-5zm10 0h5v5h-5zm5 0h5v5h-5zm10 0h5v5h-5zm5 0h5v5h-5zm10 0h5v5h-5zm5 0h5v5h-5zm5 0h5v5h-5zm5 0h5v5h-5zm5 0h5v5h-5zm5 0h5v5h-5zm5 0h5v5h-5zm5 0h5v5h-5zm10 0h5v5h-5zm5 0h5v5h-5zm5 0h5v5h-5zm15 0h5v5h-5zm10 0h5v5h-5zm5 0h5v5h-5zm5 0h5v5h-5zm10 0h5v5h-5zM22 72h5v5h-5zm40 0h5v5h-5zm5 0h5v5h-5zm5 0h5v5h-5zm15 0h5v5h-5zm10 0h5v5h-5zm15 0h5v5h-5zm5 0h5v5h-5zm5 0h5v5h-5zm10 0h5v5h-5zm5 0h5v5h-5zm20 0h5v5h-5zm10 0h5v5h-5zM17 77h5v5h-5zm5 0h5v5h-5zm5 0h5v5h-5zm5 0h5v5h-5zm10 0h5v5h-5zm5 0h5v5h-5zm15 0h5v5h-5zm10 0h5v5h-5zm25 0h5v5h-5zm15 0h5v5h-5zm5 0h5v5h-5zm10 0h5v5h-5zm10 0h5v5h-5zm5 0h5v5h-5zm10 0h5v5h-5zm5 0h5v5h-5zm5 0h5v5h-5zM17 82h5v5h-5zm5 0h5v5h-5zm10 0h5v5h-5zm5 0h5v5h-5zm5 0h5v5h-5zm15 0h5v5h-5zm5 0h5v5h-5zm5 0h5v5h-5zm10 0h5v5h-5zm5 0h5v5h-5zm10 0h5v5h-5zm5 0h5v5h-5zm5 0h5v5h-5zm15 0h5v5h-5zm15 0h5v5h-5zm10 0h5v5h-5zm5 0h5v5h-5zm25 0h5v5h-5zm5 0h5v5h-5zM17 87h5v5h-5zm5 0h5v5h-5zm5 0h5v5h-5zm5 0h5v5h-5zm5 0h5v5h-5zm10 0h5v5h-5zm5 0h5v5h-5zm5 0h5v5h-5zm25 0h5v5h-5zm5 0h5v5h-5zm5 0h5v5h-5zm5 0h5v5h-5zm5 0h5v5h-5zm15 0h5v5h-5zm5 0h5v5h-5zm15 0h5v5h-5zm35 0h5v5h-5zM27 92h5v5h-5zm5 0h5v5h-5zm5 0h5v5h-5zm5 0h5v5h-5zm35 0h5v5h-5zm5 0h5v5h-5zm10 0h5v5h-5zm20 0h5v5h-5zm10 0h5v5h-5zm15 0h5v5h-5zm10 0h5v5h-5zm5 0h5v5h-5zm15 0h5v5h-5zM17 97h5v5h-5zm20 0h5v5h-5zm5 0h5v5h-5zm5 0h5v5h-5zm5 0h5v5h-5zm5 0h5v5h-5zm5 0h5v5h-5zm15 0h5v5h-5zm10 0h5v5h-5zm5 0h5v5h-5zm10 0h5v5h-5zm15 0h5v5h-5zm10 0h5v5h-5zm5 0h5v5h-5zm5 0h5v5h-5zm5 0h5v5h-5zm10 0h5v5h-5zm5 0h5v5h-5zm15 0h5v5h-5zm-150 5h5v5h-5zm5 0h5v5h-5zm5 0h5v5h-5zm10 0h5v5h-5zm10 0h5v5h-5zm5 0h5v5h-5zm5 0h5v5h-5zm35 0h5v5h-5zm5 0h5v5h-5zm10 0h5v5h-5zm5 0h5v5h-5zm5 0h5v5h-5zm5 0h5v5h-5zm5 0h5v5h-5zm10 0h5v5h-5zm5 0h5v5h-5zm15 0h5v5h-5zm10 0h5v5h-5zm5 0h5v5h-5zm-160 5h5v5h-5zm10 0h5v5h-5zm20 0h5v5h-5zm5 0h5v5h-5zm10 0h5v5h-5zm10 0h5v5h-5zm5 0h5v5h-5zm15 0h5v5h-5zm15 0h5v5h-5zm10 0h5v5h-5zm5 0h5v5h-5zm5 0h5v5h-5zm30 0h5v5h-5zm5 0h5v5h-5zm10 0h5v5h-5zm-155 5h5v5h-5zm5 0h5v5h-5zm10 0h5v5h-5zm10 0h5v5h-5zm15 0h5v5h-5zm15 0h5v5h-5zm15 0h5v5h-5zm5 0h5v5h-5zm5 0h5v5h-5zm15 0h5v5h-5zm10 0h5v5h-5zm5 0h5v5h-5zm5 0h5v5h-5zm5 0h5v5h-5zm15 0h5v5h-5zm15 0h5v5h-5zm-150 5h5v5h-5zm25 0h5v5h-5zm5 0h5v5h-5zm15 0h5v5h-5zm5 0h5v5h-5zm5 0h5v5h-5zm20 0h5v5h-5zm5 0h5v5h-5zm5 0h5v5h-5zm15 0h5v5h-5zm10 0h5v5h-5zm15 0h5v5h-5zm15 0h5v5h-5zm15 0h5v5h-5zm-155 5h5v5h-5zm5 0h5v5h-5zm40 0h5v5h-5zm15 0h5v5h-5zm5 0h5v5h-5zm5 0h5v5h-5zm10 0h5v5h-5zm5 0h5v5h-5zm5 0h5v5h-5zm5 0h5v5h-5zm5 0h5v5h-5zm5 0h5v5h-5zm10 0h5v5h-5zm15 0h5v5h-5zm15 0h5v5h-5zm10 0h5v5h-5zm5 0h5v5h-5zm-160 5h5v5h-5zm10 0h5v5h-5zm15 0h5v5h-5zm5 0h5v5h-5zm15 0h5v5h-5zm5 0h5v5h-5zm15 0h5v5h-5zm5 0h5v5h-5zm5 0h5v5h-5zm10 0h5v5h-5zm15 0h5v5h-5zm40 0h5v5h-5zm5 0h5v5h-5zm10 0h5v5h-5zm-155 5h5v5h-5zm25 0h5v5h-5zm15 0h5v5h-5zm5 0h5v5h-5zm15 0h5v5h-5zm5 0h5v5h-5zm10 0h5v5h-5zm5 0h5v5h-5zm15 0h5v5h-5zm10 0h5v5h-5zm15 0h5v5h-5zm5 0h5v5h-5zm10 0h5v5h-5zm5 0h5v5h-5zm5 0h5v5h-5zm5 0h5v5h-5zm-150 5h5v5h-5zm10 0h5v5h-5zm10 0h5v5h-5zm5 0h5v5h-5zm5 0h5v5h-5zm30 0h5v5h-5zm10 0h5v5h-5zm5 0h5v5h-5zm5 0h5v5h-5zm5 0h5v5h-5zm30 0h5v5h-5zm5 0h5v5h-5zm5 0h5v5h-5zm5 0h5v5h-5zm5 0h5v5h-5zm5 0h5v5h-5zm20 0h5v5h-5zm-120 5h5v5h-5zm5 0h5v5h-5zm5 0h5v5h-5zm30 0h5v5h-5zm15 0h5v5h-5zm5 0h5v5h-5zm15 0h5v5h-5zm5 0h5v5h-5zm20 0h5v5h-5zm5 0h5v5h-5zm15 0h5v5h-5zm-160 5h5v5h-5zm5 0h5v5h-5zm5 0h5v5h-5zm5 0h5v5h-5zm5 0h5v5h-5zm5 0h5v5h-5zm5 0h5v5h-5zm10 0h5v5h-5zm15 0h5v5h-5zm5 0h5v5h-5zm15 0h5v5h-5zm5 0h5v5h-5zm20 0h5v5h-5zm10 0h5v5h-5zm5 0h5v5h-5zm5 0h5v5h-5zm10 0h5v5h-5zm10 0h5v5h-5zm5 0h5v5h-5zm10 0h5v5h-5zm-155 5h5v5h-5zm30 0h5v5h-5zm20 0h5v5h-5zm5 0h5v5h-5zm15 0h5v5h-5zm10 0h5v5h-5zm15 0h5v5h-5zm5 0h5v5h-5zm5 0h5v5h-5zm10 0h5v5h-5zm5 0h5v5h-5zm20 0h5v5h-5zm5 0h5v5h-5zm5 0h5v5h-5zm10 0h5v5h-5zm-160 5h5v5h-5zm10 0h5v5h-5zm5 0h5v5h-5zm5 0h5v5h-5zm10 0h5v5h-5zm10 0h5v5h-5zm10 0h5v5h-5zm5 0h5v5h-5zm40 0h5v5h-5zm15 0h5v5h-5zm10 0h5v5h-5zm5 0h5v5h-5zm5 0h5v5h-5zm5 0h5v5h-5zm5 0h5v5h-5zm15 0h5v5h-5zm5 0h5v5h-5zm-160 5h5v5h-5zm10 0h5v5h-5zm5 0h5v5h-5zm5 0h5v5h-5zm10 0h5v5h-5zm10 0h5v5h-5zm10 0h5v5h-5zm10 0h5v5h-5zm5 0h5v5h-5zm5 0h5v5h-5zm10 0h5v5h-5zm5 0h5v5h-5zm10 0h5v5h-5zm25 0h5v5h-5zm5 0h5v5h-5zm10 0h5v5h-5zm5 0h5v5h-5zm5 0h5v5h-5zm10 0h5v5h-5zm5 0h5v5h-5zm-160 5h5v5h-5zm10 0h5v5h-5zm5 0h5v5h-5zm5 0h5v5h-5zm10 0h5v5h-5zm10 0h5v5h-5zm5 0h5v5h-5zm20 0h5v5h-5zm5 0h5v5h-5zm5 0h5v5h-5zm5 0h5v5h-5zm5 0h5v5h-5zm15 0h5v5h-5zm5 0h5v5h-5zm10 0h5v5h-5zm10 0h5v5h-5zm5 0h5v5h-5zm20 0h5v5h-5zm-150 5h5v5h-5zm30 0h5v5h-5zm10 0h5v5h-5zm10 0h5v5h-5zm10 0h5v5h-5zm5 0h5v5h-5zm15 0h5v5h-5zm15 0h5v5h-5zm5 0h5v5h-5zm5 0h5v5h-5zm5 0h5v5h-5zm15 0h5v5h-5zm20 0h5v5h-5zm5 0h5v5h-5zm-150 5h5v5h-5zm5 0h5v5h-5zm5 0h5v5h-5zm5 0h5v5h-5zm5 0h5v5h-5zm5 0h5v5h-5zm5 0h5v5h-5zm10 0h5v5h-5zm10 0h5v5h-5zm10 0h5v5h-5zm10 0h5v5h-5zm5 0h5v5h-5zm10 0h5v5h-5zm10 0h5v5h-5zm15 0h5v5h-5zm5 0h5v5h-5zm5 0h5v5h-5zm10 0h5v5h-5zm25 0h5v5h-5z"/></svg>